<svg xmlns="http://www.w3.org/2000/svg" width="20.28" height="20.097" viewBox="0 0 20.28 20.097">
  <g id="Grupo_8" data-name="Grupo 8" transform="translate(-2 -1.004)">
    <path id="Caminho_1" data-name="Caminho 1" d="M11.574,3H4.905A1.905,1.905,0,0,0,3,4.905V18.242a1.905,1.905,0,0,0,1.905,1.905H18.242a1.905,1.905,0,0,0,1.905-1.905V11.574" transform="translate(0 -0.047)" fill="none" stroke="#383838" stroke-linecap="round" stroke-linejoin="round" stroke-width="2"/>
    <path id="Caminho_2" data-name="Caminho 2" d="M17.884,2.6a2.021,2.021,0,0,1,2.858,2.858l-8.586,8.587a1.905,1.905,0,0,1-.813.481l-2.737.8a.476.476,0,0,1-.591-.591l.8-2.737a1.905,1.905,0,0,1,.482-.812Z" transform="translate(-0.237 0)" fill="none" stroke="#383838" stroke-linecap="round" stroke-linejoin="round" stroke-width="2"/>
  </g>
</svg>
