<svg xmlns="http://www.w3.org/2000/svg" width="16.576" height="16.2" viewBox="0 0 16.576 16.2">
  <g id="Grupo_27" data-name="Grupo 27" transform="translate(-1.206 -1.39)">
    <path id="Caminho_45" data-name="Caminho 45" d="M10.117,2.135a1.5,1.5,0,0,0-1.244,0L2.45,5.057a.749.749,0,0,0,0,1.371l6.43,2.93a1.5,1.5,0,0,0,1.244,0l6.43-2.923a.749.749,0,0,0,0-1.371Z" transform="translate(-0.001)" fill="none" stroke="#383838" stroke-linecap="round" stroke-linejoin="round" stroke-width="1.2"/>
    <path id="Caminho_46" data-name="Caminho 46" d="M16.988,17.65l-6.872,3.117a1.5,1.5,0,0,1-1.244,0L2,17.65" transform="translate(0 -3.922)" fill="none" stroke="#383838" stroke-linecap="round" stroke-linejoin="round" stroke-width="1.2"/>
    <path id="Caminho_47" data-name="Caminho 47" d="M16.988,12.65l-6.872,3.117a1.5,1.5,0,0,1-1.244,0L2,12.65" transform="translate(0 -2.669)" fill="none" stroke="#383838" stroke-linecap="round" stroke-linejoin="round" stroke-width="1.2"/>
  </g>
</svg>
