<?xml version="1.0" encoding="UTF-8"?>
<svg id="Layer_2" data-name="Layer 2" xmlns="http://www.w3.org/2000/svg" viewBox="0 0 1583.47 343.01">
  <defs>
    <style>
      .cls-1 {
        fill: #0a0a0a;
      }
    </style>
  </defs>
  <g id="Layer_1-2" data-name="Layer 1">
    <g>
      <g>
        <path class="cls-1" d="m171.51,0C76.79,0,0,76.79,0,171.51s76.79,171.51,171.51,171.51,171.51-76.79,171.51-171.51S266.23,0,171.51,0Zm0,311.39c-77.13,0-139.88-62.75-139.88-139.88S94.37,31.62,171.51,31.62s139.88,62.75,139.88,139.88-62.75,139.88-139.88,139.88Z"/>
        <rect class="cls-1" x="155.41" y="155.41" width="32.2" height="32.2"/>
        <rect class="cls-1" x="155.41" y="104.58" width="32.2" height="32.2"/>
        <rect class="cls-1" x="155.41" y="53.75" width="32.2" height="32.2"/>
      </g>
      <g>
        <path class="cls-1" d="m640.4,103.18c-9.11-4.77-19.28-7.15-30.51-7.15s-21.77,2.44-30.98,7.31c-7.59,4.01-13.97,9.41-19.19,16.15-4.82-6.95-10.97-12.44-18.47-16.47-8.69-4.66-18.33-6.99-28.92-6.99-11.23,0-21.24,2.38-30.03,7.15-4.96,2.69-9.34,6-13.19,9.9v-13.88h-40.36v153.17h40.36v-90.57c0-6.14,1.38-11.39,4.13-15.73,2.75-4.34,6.36-7.68,10.81-10.01,4.45-2.33,9.53-3.49,15.25-3.49,8.47,0,15.57,2.54,21.29,7.63,5.72,5.08,8.58,12.29,8.58,21.61v90.57h40.36v-90.57c0-6.14,1.38-11.39,4.13-15.73,2.75-4.34,6.41-7.68,10.96-10.01,4.55-2.33,9.58-3.49,15.09-3.49,8.26,0,15.25,2.54,20.97,7.63,5.72,5.08,8.58,12.29,8.58,21.61v90.57h40.68v-97.24c0-12.5-2.65-23.09-7.94-31.78-5.3-8.68-12.5-15.41-21.61-20.18Z"/>
        <rect class="cls-1" x="688.85" y="99.21" width="40.36" height="153.17"/>
        <path class="cls-1" d="m862.23,113.12c-4.09-4.06-8.8-7.48-14.14-10.25-8.79-4.55-18.8-6.83-30.03-6.83-14.2,0-26.91,3.5-38.13,10.49-11.23,6.99-20.08,16.47-26.53,28.44-6.47,11.97-9.69,25.69-9.69,41.15s3.23,28.55,9.69,40.52c6.46,11.97,15.3,21.45,26.53,28.44,11.23,6.99,23.94,10.49,38.13,10.49,11.01,0,21.02-2.38,30.03-7.15,5.52-2.92,10.33-6.49,14.46-10.68v14.65h40.04V22.95h-40.36v90.17Zm-16.52,99.54c-5.93,3.6-12.92,5.4-20.97,5.4-7.63,0-14.46-1.75-20.5-5.24-6.04-3.5-10.75-8.47-14.14-14.94-3.39-6.46-5.08-13.82-5.08-22.08s1.69-15.83,5.08-22.09c3.39-6.25,8.1-11.23,14.14-14.94,6.04-3.7,12.97-5.56,20.81-5.56s14.72,1.86,20.66,5.56c5.93,3.71,10.59,8.69,13.98,14.94,3.39,6.25,5.08,13.61,5.08,22.09s-1.7,15.57-5.08,21.93c-3.39,6.36-8.05,11.34-13.98,14.94Z"/>
        <path class="cls-1" d="m1037.1,104.46c-8.9-5.61-18.96-8.42-30.19-8.42s-22.04,2.54-31.14,7.63c-5.18,2.89-9.72,6.44-13.66,10.59v-15.04h-40.36v153.17h40.36v-88.02c0-6.14,1.38-11.65,4.13-16.52,2.75-4.87,6.52-8.63,11.28-11.28,4.77-2.65,10.22-3.97,16.36-3.97,9.11,0,16.63,2.97,22.56,8.9,5.93,5.93,8.9,13.56,8.9,22.88v88.02h40.36v-96.92c0-10.17-2.54-19.81-7.63-28.92-5.08-9.11-12.08-16.47-20.97-22.08Z"/>
        <rect class="cls-1" x="1084.28" y="99.21" width="40.36" height="153.17"/>
        <path class="cls-1" d="m1257.7,112.67c-3.94-3.85-8.53-7.13-13.82-9.8-9.01-4.55-19.23-6.83-30.67-6.83-13.56,0-25.85,3.34-36.86,10.01-11.02,6.67-19.65,15.73-25.9,27.17-6.25,11.44-9.38,24.36-9.38,38.77s3.12,27.38,9.38,38.93c6.25,11.55,14.88,20.71,25.9,27.49,11.01,6.78,23.41,10.17,37.18,10.17,11.23,0,21.29-2.27,30.19-6.83,5.19-2.66,9.73-5.93,13.66-9.78v13.43c0,11.65-3.76,20.81-11.28,27.49-7.52,6.67-17.95,10.01-31.3,10.01-10.38,0-19.28-1.86-26.69-5.56-7.42-3.71-14.09-9.17-20.02-16.37l-25.74,25.74c7.41,10.59,17.32,18.8,29.71,24.63,12.39,5.82,26.85,8.74,43.38,8.74s30.35-3.13,42.74-9.37c12.39-6.25,22.08-14.99,29.08-26.22,6.99-11.23,10.49-24.36,10.49-39.4V99.21h-40.04v13.46Zm-16.05,93.79c-5.83,3.29-12.66,4.93-20.5,4.93s-14.35-1.69-20.18-5.08c-5.83-3.39-10.38-8.05-13.66-13.98-3.29-5.93-4.93-12.6-4.93-20.02,0-7.84,1.64-14.67,4.93-20.5,3.28-5.82,7.84-10.43,13.66-13.82,5.82-3.39,12.66-5.08,20.5-5.08s14.35,1.7,20.18,5.08c5.82,3.39,10.33,8,13.51,13.82,3.18,5.83,4.77,12.66,4.77,20.5s-1.59,14.41-4.77,20.34c-3.18,5.93-7.68,10.54-13.51,13.82Z"/>
        <path class="cls-1" d="m1430.46,103.5c-9.01-4.98-19.33-7.47-30.98-7.47s-21.98,2.54-30.98,7.63c-4.99,2.82-9.37,6.26-13.19,10.28V22.95h-40.36v229.43h40.36v-88.02c0-6.14,1.38-11.65,4.13-16.52,2.75-4.87,6.52-8.63,11.28-11.28,4.77-2.65,10.22-3.97,16.36-3.97,9.11,0,16.63,2.97,22.56,8.9,5.93,5.93,8.9,13.56,8.9,22.88v88.02h40.36v-96.92c0-11.65-2.49-21.98-7.47-30.98-4.98-9-11.97-15.99-20.97-20.97Z"/>
        <polygon class="cls-1" points="1583.47 99.21 1547.56 99.21 1547.56 35.34 1507.21 35.34 1507.21 99.21 1470.98 99.21 1470.98 134.49 1507.21 134.49 1507.21 252.38 1547.56 252.38 1547.56 134.49 1583.47 134.49 1583.47 99.21"/>
        <circle class="cls-1" cx="708.87" cy="50.59" r="22.88"/>
        <circle class="cls-1" cx="1104.46" cy="50.59" r="22.88"/>
      </g>
    </g>
  </g>
</svg>