<svg xmlns="http://www.w3.org/2000/svg" width="13.011" height="16.023" viewBox="0 0 13.011 16.023">
  <g id="Grupo_24" data-name="Grupo 24" transform="translate(-3.4 -1.345)">
    <path id="Caminho_40" data-name="Caminho 40" d="M15.811,10.12c0,3.691-2.584,5.537-5.655,6.607a.738.738,0,0,1-.495-.007C6.584,15.657,4,13.811,4,10.12V4.953a.738.738,0,0,1,.738-.738A7.81,7.81,0,0,0,9.345,2.207a.864.864,0,0,1,1.122,0,7.784,7.784,0,0,0,4.606,2.008.738.738,0,0,1,.738.738Z" transform="translate(0 0)" fill="none" stroke="#383838" stroke-linecap="round" stroke-linejoin="round" stroke-width="1.2"/>
    <path id="Caminho_41" data-name="Caminho 41" d="M9,11.476l1.476,1.476L13.429,10" transform="translate(-1.309 -2.094)" fill="none" stroke="#383838" stroke-linecap="round" stroke-linejoin="round" stroke-width="1.2"/>
  </g>
</svg>
